<svg 
 xmlns="http://www.w3.org/2000/svg"
 xmlns:xlink="http://www.w3.org/1999/xlink"
 width="16px" height="16px">
<path fill-rule="evenodd"  fill="rgb(255, 255, 255)"
 d="M12.928,14.293 C12.582,11.869 10.519,10.000 8.000,10.000 C5.480,10.000 3.417,11.869 3.071,14.293 C1.204,12.828 -0.000,10.557 -0.000,8.000 C-0.000,3.581 3.581,-0.000 8.000,-0.000 C12.418,-0.000 16.000,3.581 16.000,8.000 C16.000,10.557 14.796,12.828 12.928,14.293 ZM8.000,2.000 C6.342,2.000 5.000,3.343 5.000,5.000 C5.000,6.657 6.342,8.000 8.000,8.000 C9.657,8.000 11.000,6.657 11.000,5.000 C11.000,3.343 9.657,2.000 8.000,2.000 Z"/>
</svg>